<?xml version="1.0" encoding="utf-8"?>
<!-- Generator: Adobe Illustrator 19.0.0, SVG Export Plug-In . SVG Version: 6.00 Build 0)  -->
<svg version="1.1" xmlns="http://www.w3.org/2000/svg" xmlns:xlink="http://www.w3.org/1999/xlink" x="0px" y="0px"
	 viewBox="206 -206 511 512" style="enable-background:new 206 -206 511 512;" xml:space="preserve">
<style type="text/css">
	.st0{fill:#FFFFFF;stroke:#000000;stroke-width:8;stroke-miterlimit:10;}
	.st1{fill:#EDDF32;stroke:#000000;stroke-width:8;stroke-miterlimit:10;}
	.st2{fill:#44D82A;stroke:#000000;stroke-width:8;stroke-miterlimit:10;}
	.st3{fill:#141333;}
	.st4{fill:#2D74EC;}
</style>
<g id="Layer_2">
	<path class="st0" d="M382-28.3H225.3v-116.1c0-22.4,18.2-40.5,40.5-40.5H382V-28.3z"/>
	<rect x="382" y="-184.9" class="st0" width="156.7" height="156.7"/>
	<path class="st0" d="M695.3-28.3H538.7v-156.7h116.2c22.4,0,40.5,18.1,40.5,40.5V-28.3z"/>
	<rect x="225.3" y="-28.3" class="st0" width="156.7" height="156.7"/>
	<rect x="382" y="-28.3" class="st1" width="156.7" height="156.7"/>
	<rect x="538.7" y="-28.3" class="st2" width="156.7" height="156.7"/>
	<path class="st2" d="M382,285.1H266c-22.4,0-40.6-18.2-40.6-40.6v-116H382V285.1z"/>
	<rect x="382" y="128.4" class="st2" width="156.7" height="156.7"/>
	<path class="st2" d="M655.1,285.1H538.7V128.4h156.7v116.5C695.3,267.1,677.3,285.1,655.1,285.1z"/>
</g>
<g id="Layer_1">
	<path class="st3" d="M442.8-176.4c-12.6,0.5-24.8,1.4-30.1,2.4c-4.8,1-12,2.6-15.8,3.7c-3.7,1.1-10.4,3.6-14.6,5.6
		c-4.2,2-10.1,5.2-12.9,7.1s-7.6,5-10.6,7c-3,1.9-9.7,7.7-15.1,12.8c-5.3,5.1-12.5,13-16,17.7c-3.5,4.6-7.8,11.5-9.7,15.3
		c-1.9,3.7-4.7,10.9-6.3,15.8s-3.5,11.5-4,14.8c-0.6,3.3-1.1,11.1-1.1,17.6c0,6.3,0.5,13.9,1.1,16.7c0.6,2.9,1.8,8.1,2.6,11.6
		c0.9,3.6,1.9,6.8,2.3,7.4s1.1,2.3,1.4,3.9c0.4,1.7,2.8,7,5.2,11.8s5.9,10.9,7.7,13.3c1.8,2.5,8.1,9.1,14,14.8s12.4,11.7,14.6,13.3
		c2.2,1.6,6.1,4.5,8.9,6.5c2.7,1.9,7.2,5,9.9,6.9c2.8,2,6,3.8,7.4,4.2c1.4,0.5,3.7,1.6,5.4,2.5c1.7,1,4.2,2.1,5.9,2.4
		c1.7,0.4,4.7,1.6,6.9,2.6c2.2,1.1,5.7,2.6,7.9,3.4c2.2,0.8,8.8,3.2,14.8,5.2c6,2,13.5,4.6,16.8,5.9c3.3,1.2,11.2,4.2,17.8,6.7
		c6.5,2.5,13.2,4.7,14.8,5.1c1.6,0.4,4.9,1.7,7.4,3c2.5,1.3,5,2.4,5.7,2.4c0.6,0,6.2,2.5,12.3,5.4c6,3,13.6,6.8,16.8,8.6
		c3.2,1.8,8.9,5.9,12.7,9.2c3.8,3.3,8.9,8.6,11.2,11.8c3,4.1,4.7,8,6,13.1c1.7,6.9,1.7,7.5,0,15.3c-1,4.4-2.9,10.6-4.2,13.5
		c-1.6,3.4-5,7.8-9.1,11.8c-4.3,4.2-8.3,7-11.5,8.3c-2.8,1-8,3.3-11.8,5c-3.8,1.8-8.5,3.5-10.4,3.7c-1.9,0.3-8.8,1.5-15.3,2.6
		c-8,1.4-16,2.1-24.7,2c-9.1,0-15.3-0.6-21.2-2c-4.6-1-12.1-2.8-16.8-3.7c-4.6-1.1-10-2.6-11.8-3.4c-1.9-0.8-5.6-3-8.4-4.8
		c-2.7-1.8-6.3-5.1-8.1-7.4c-1.8-2.4-3.6-5.9-4.2-7.9c-0.5-2.1-1-5.8-1-8.4c0-2.7,0.7-10.7,1.6-17.8c0.8-7.2,2-14,2.6-15.1
		c0.6-1.1,2.1-5.5,3.4-9.9c1.3-4.3,2.4-10.5,2.4-13.5c0-4.1-0.7-7-2.5-10.4c-1.3-2.7-4.3-6.5-6.6-8.8c-2.4-2.3-6.5-5.7-9.2-7.7
		c-2.8-2-6.6-4-8.7-4.5c-2-0.6-5.5-0.7-7.9-0.4c-2.3,0.4-6.4,1.7-9.1,2.9c-2.8,1.2-6.3,3.7-8,5.5c-1.8,1.9-4.7,5.9-6.7,9.1
		c-2,3.1-3.6,5.7-3.6,5.9c0,0.1-2.2,4-4.9,8.9c-2.7,4.7-4.9,8.8-4.9,9.1c0,0.3-1.7,3.3-3.7,6.7c-2.1,3.4-5.3,9.2-7.3,13
		c-1.9,3.8-6.4,12.4-10.1,19.2c-3.6,6.8-10.5,20.3-15.3,30.1c-4.8,9.8-9.4,19.3-10.3,21.2c-0.8,1.9-2.8,6.5-4.2,10.4
		c-2.3,5.8-2.7,8.5-2.8,16.8c0,9,0.2,10.4,2.9,15.7c1.7,3.2,5.8,8.8,9.4,12.3c4.7,4.9,7.8,7.2,11.8,8.7c3.2,1.2,9.2,2.3,14.3,2.7
		c4.9,0.3,51.1,0.6,102.6,0.7l93.7,0.2c23-4.8,36.3-8.2,44.4-10.6c8.1-2.4,19.4-5.9,25.2-7.8c5.7-1.9,12.5-4.4,15.3-5.6
		c2.7-1.2,10.5-6.5,17.3-11.8c6.8-5.3,14.1-11.5,16.4-13.9c2.2-2.4,7-9,10.9-14.7c4.5-6.8,8.3-14,11-21.2c2.4-6,4.9-13.5,5.8-16.8
		c0.9-3.7,1.8-11.9,2.1-21.7c0.5-13,0.2-18.3-1.6-30.6c-1.7-11.7-3-16.9-6.1-24.7c-2.2-5.4-6.2-13.9-9-18.7
		c-2.8-4.8-6.8-11.5-9.1-14.8c-2.2-3.3-6.9-9-10.5-12.7c-3.6-3.7-10-9.6-14.3-12.9c-4.3-3.4-11.4-8.6-15.8-11.5
		c-4.3-3-10.8-6.9-14.3-8.9c-3.6-2-11.7-6.2-18.3-9.5c-6.5-3.4-16.5-8-22.2-10.5c-5.7-2.4-16.4-6.2-23.7-8.5
		c-7.3-2.3-22.6-7.1-34-10.9c-13.6-4.4-24.8-8.8-32.6-12.7c-9.2-4.6-12.2-6.7-13.7-9.2c-1.1-1.8-4.2-5.9-7.2-9.2
		c-4.5-5.2-5.3-6.7-6.2-12c-0.7-4.3-0.7-7.5,0.1-10.4c0.6-2.4,1.8-5.5,2.6-7.2c0.9-1.7,2.5-4,3.7-5.2c1.2-1.3,4.7-3.8,8-5.6
		c3.3-1.8,8.8-4.2,12.3-5.5c5.9-2.2,7.8-2.4,24.7-2.3c12.9,0.1,19.8,0.5,23.7,1.6c3,0.8,6.4,2,7.6,2.7c1.3,0.6,3.2,1.1,4.2,1.1
		c1.1,0,3.6,1.7,5.8,3.7c2.7,2.6,4.2,5.2,5.4,9.4c1,3.7,1.6,9.6,1.6,17.3c0.1,6.3,0.5,14.7,1.1,18.4c0.5,3.7,1.3,9.2,1.6,11.8
		c0.3,2.8,1.6,6.5,2.8,8.4c1.2,1.9,3.1,4.1,4,5c1.1,0.8,5.5,2.8,10,4.1c4.5,1.5,9.4,2.7,10.9,2.7c1.6,0,4.7-0.7,7.2-1.5
		c2.5-0.9,5.9-3,7.7-4.7c1.8-1.8,4.2-5.3,5.5-8.1c1.2-2.7,2.6-6.1,2.9-7.6c0.4-1.6,11.1-24,24-49.8l23.3-47.2
		c-0.7-13.8-1.4-17.2-3.4-21.2c-1.6-3.3-4.6-7.3-7.9-10.2c-2.9-2.7-7.5-5.8-10.2-7.2c-2.8-1.3-8.4-3.1-12.6-3.8
		c-6.2-1.2-17.2-1.5-62.1-1.3C488.5-177.1,454.4-176.7,442.8-176.4L442.8-176.4z"/>
	<path class="st4" d="M485.7-158.5c-31,0.4-60.5,1.2-65.6,1.8c-5.1,0.5-12.7,2.1-16.8,3.4c-4,1.4-10.1,3.7-13.3,5.1
		c-3.3,1.5-9.1,4.7-12.8,7.2c-3.7,2.5-10.7,7.7-15.3,11.5c-4.6,3.9-10.4,9.3-12.7,11.9c-2.4,2.7-6.3,7.7-8.9,11.2
		c-2.5,3.6-6.1,10.2-8.1,14.8s-4.3,11.9-5.3,16.3c-1.5,6.4-1.7,10.4-1.2,21.7c0.3,7.6,1.1,15.6,1.7,17.8c0.6,2.2,1.7,5.7,2.3,7.9
		c0.5,2.2,2.8,7.5,4.9,11.8c2.1,4.3,4.8,9.2,6,10.9c1.1,1.6,4.3,5.4,7,8.6c2.8,3.1,9,9,13.8,13.1c4.8,4.1,12.7,10,17.6,12.9
		c4.7,3,12.7,7.3,17.7,9.7c5,2.4,10.3,4.6,11.6,4.9c1.4,0.4,3.5,1.1,4.7,1.7c1.2,0.5,3.2,1.3,4.4,1.8c1.2,0.5,4.4,1.8,7.1,2.9
		c2.8,1.1,10.1,3.7,16.3,5.9c6.2,2.2,13.6,4.7,16.3,5.7c2.8,0.9,7.6,2.7,10.9,3.8c3.3,1.2,7.7,2.8,9.9,3.4c2.2,0.7,5.5,1.8,7.4,2.6
		c1.9,0.7,6.5,2.6,10.4,4c3.8,1.6,9.6,4.2,12.8,5.9c3.3,1.7,8.8,4.7,12.3,6.8c3.6,2,10.5,6.7,15.3,10.4c4.8,3.7,10.5,8.7,12.4,11
		c2,2.3,4.9,6.4,6.6,9.2c1.7,2.7,4,8,5.2,11.8c1.9,5.6,2.4,9,2.3,18.3c0,8.9-0.5,12.9-2.3,18.7c-1.3,4-3.6,10.1-5.3,13.2
		c-2.1,3.7-5.9,8.4-11,13.1c-6.2,5.8-10.3,8.5-18.7,12.7c-6,2.9-11.1,5.3-11.6,5.3c-0.4,0-2.2,0.6-3.8,1.4c-1.8,0.7-5,1.8-7.2,2.4
		c-2.2,0.6-7.5,1.9-11.8,2.8c-6.1,1.4-12.5,1.8-28.6,1.7c-14.9,0-23.4-0.5-30.1-1.7c-5.1-1-11.1-2.2-13.3-2.7
		c-2.2-0.6-5.7-1.5-7.9-2.1c-2.2-0.6-5.7-1.7-7.9-2.5c-2.2-0.9-6.4-2.7-9.4-4.1c-3-1.4-8.3-5.4-11.9-9c-4-3.9-7.6-8.5-9.2-11.8
		c-1.4-3-3.2-7.7-4-10.4c-0.8-2.8-1.5-8.3-1.5-12.3c0-4.4,1.2-13.2,3-21.7c1.7-7.9,3.4-16.3,3.9-18.7c0.5-2.5,1.4-6,2-7.9
		c0.5-1.9,1-4.9,1-6.7c0-2.8-0.7-3.7-6.1-7.2c-3.5-2.2-7.3-4.2-8.7-4.5c-2.1-0.5-3.2,0.2-6.1,3.7c-2.1,2.4-4.2,5.4-4.9,6.8
		c-0.7,1.4-3.9,7.3-7.3,13.3c-3.4,5.9-8.9,16.2-12.2,22.7c-3.5,6.5-8.9,17-12.1,23.2c-3.3,6.2-10.7,20.6-16.4,32.1
		c-5.8,11.4-11.7,23.6-13.2,27.1c-2.1,4.7-2.7,7.2-2.1,9.4c0.4,1.6,1.9,5.1,3.3,7.8c1.4,2.7,4.1,6.7,6.1,8.9l3.6,4
		c66.4,1.2,113,1.8,146.3,2.1c44.2,0.5,62.9,0.4,69.1-0.5c4.6-0.6,11.2-1.6,14.8-2.2c3.6-0.5,9.1-1.7,12.3-2.5
		c3.3-0.9,10-3,14.8-4.6c4.8-1.6,12.9-4.8,17.8-7.1c4.8-2.3,12.2-6.2,16.3-8.9c4-2.6,10-7.2,13.2-10.3c3.2-3.1,7.8-8.2,10.4-11.4
		c2.5-3.3,5-6.8,5.6-7.9c0.6-1.1,2.2-3.9,3.5-6.4c1.4-2.5,3.6-7.5,5-11.3c1.4-3.8,3.2-9.6,4-12.8c0.8-3.3,2-8.6,2.6-11.8
		c0.6-3.3,1.1-12,1.1-19.5c0-7.4-0.5-15.9-1.1-18.7c-0.6-2.8-1.7-7.6-2.6-10.6c-0.8-3-2.4-7.9-3.5-10.9c-1.2-3-3.1-7.7-4.2-10.4
		c-1.3-2.8-3.7-7.2-5.5-9.9c-1.9-2.8-5.4-7.6-7.9-10.9c-2.5-3.3-8.3-9.5-12.8-13.7S587,45.3,581.9,41.6c-5.1-3.6-11.8-7.9-14.8-9.6
		c-3-1.7-9.7-5-14.8-7.7c-5.1-2.6-10.2-5-11.1-5.5c-0.9-0.5-4.9-2.2-8.9-3.7c-3.8-1.5-10-3.7-13.5-4.9c-3.6-1.3-9.1-3.3-12.3-4.5
		s-10-3.5-14.8-4.9c-4.8-1.5-14.4-4.5-21.2-6.9c-6.8-2.4-16.1-5.6-20.7-7.3c-4.6-1.7-11.7-4.6-15.8-6.6c-4-2-10.8-6.1-14.8-9.1
		c-4-3.1-9.7-7.8-12.4-10.6c-2.8-2.7-6.2-7.4-7.8-10.4c-1.6-3.2-3.1-8.3-3.6-12.3c-0.5-4.2-0.5-9.4,0-13.3c0.5-3.6,2.4-9.4,4.2-13.2
		c2.1-4.2,5.3-8.8,8.3-11.6c3.2-3,8.6-6.5,14.8-9.6c5.4-2.8,12.9-5.9,16.8-7.2c6.1-2,8.8-2.3,24.2-2.3c14.8,0,18.6,0.3,27.1,2.4
		c5.4,1.3,11.8,3,14.3,3.7s6.8,2.9,9.8,4.5c3,1.8,6.6,4.7,8.2,6.6c1.5,1.9,3.8,6.6,5.2,10.4c1.3,3.7,2.9,9.6,3.4,12.8
		C532-76,532.7-66,533.1-57c0.4,10.7,1.1,17.3,2,18.9c0.8,1.6,2.3,3.2,3.4,3.7c1.1,0.6,3.2,1,4.6,1c1.6,0.1,3.5-0.7,4.3-1.7
		s4.2-6.9,7.5-13.1c3.4-6.2,9.3-17.8,13.4-25.6c4-7.9,10.6-20.7,14.5-28.6c3.9-7.9,9.2-18.5,11.5-23.7c2.4-5.1,4.2-10.9,4.2-12.6
		c0-1.7-0.5-4.3-1.1-5.9c-0.5-1.5-2.9-4.5-5.1-6.9s-5.5-4.9-7.1-5.8c-2.4-1.3-6.7-1.7-23.2-1.9C551-159.3,516.6-159,485.7-158.5
		L485.7-158.5z"/>
</g>
</svg>
